<svg width="243" height="305" viewBox="0 0 243 305" fill="none" xmlns="http://www.w3.org/2000/svg">
<path fill-rule="evenodd" clip-rule="evenodd" d="M34.4908 1.69828C22.1889 3.30558 15.6887 6.26241 11.0413 10.7962C6.40913 15.3452 3.38681 21.7137 1.73137 33.7382C0.0303726 46.1265 0 62.5331 0 86.0512V216C6.0139 211.9 12.6865 208.859 19.7286 207.008C27.7476 204.901 37.1031 204.901 50.8174 204.916H243V86.0664C243 62.5331 242.97 46.1265 241.269 33.7382C239.613 21.7137 236.591 15.3452 231.959 10.7962C227.311 6.26241 220.811 3.30558 208.509 1.69828C195.843 0.0303263 179.076 0 155.019 0H87.9812C63.9242 0 47.1572 0.0303263 34.4908 1.69828ZM41.9023 69.675C41.9023 62.8818 47.5217 57.3776 54.4624 57.3776H188.538C191.833 57.3493 195.005 58.626 197.359 60.9281C199.713 63.2302 201.058 66.37 201.098 69.6598C201.062 72.9522 199.719 76.0959 197.364 78.4013C195.01 80.7067 191.835 81.9855 188.538 81.9572H54.4624C51.1672 81.9855 47.9951 80.7088 45.6409 78.4067C43.2867 76.1046 41.9424 72.9647 41.9023 69.675ZM54.4624 114.755C51.1672 114.727 47.9951 116.004 45.6409 118.306C43.2867 120.608 41.9424 123.748 41.9023 127.037C41.9023 133.831 47.5217 139.335 54.4624 139.335H138.252C141.55 139.367 144.726 138.092 147.083 135.79C149.441 133.487 150.787 130.345 150.827 127.053C150.791 123.758 149.446 120.611 147.088 118.306C144.73 116 141.552 114.723 138.252 114.755H54.4624Z" fill="#3080ED"/>
<path d="M52.3888 232H243C242.954 248.956 242.68 261.62 241.281 271.614C239.622 283.513 236.594 289.815 231.953 294.316C227.297 298.803 220.785 301.729 208.46 303.319C195.769 304.97 178.971 305 154.869 305H87.69C63.5878 305 46.7893 304.97 34.0991 303.334C21.7741 301.729 15.2617 298.803 10.6056 294.316C5.96468 289.815 2.93669 283.513 1.27814 271.614C0.654284 267.112 0.243457 262.055 0 256.308C2.08559 250.688 5.52578 245.652 10.0241 241.634C14.5225 237.616 19.944 234.737 25.8216 233.245C30.2343 232.105 35.9707 232 52.3888 232Z" fill="#3080ED"/>
</svg>
